{
   "accessors" : [
      {
         "bufferView" : 0,
         "byteOffset" : 0,
         "componentType" : 5123,
         "count" : 66,
         "max" : [ 44 ],
         "min" : [ 0 ],
         "name" : "buffer-0-group-0-mesh-0-indices",
         "type" : "SCALAR"
      },
      {
         "bufferView" : 1,
         "byteOffset" : 0,
         "componentType" : 5126,
         "count" : 45,
         "max" : [ -0.06502199918031693, 0.490321010351181, 1.874500036239624 ],
         "min" : [ -0.1150220036506653, 0.1643480062484741, 1.235388994216919 ],
         "name" : "buffer-0-group-0-mesh-0-position",
         "type" : "VEC3"
      },
      {
         "bufferView" : 1,
         "byteOffset" : 540,
         "componentType" : 5126,
         "count" : 45,
         "max" : [ 1, 1, 1 ],
         "min" : [ -1, -1, -1 ],
         "name" : "buffer-0-group-0-mesh-0-normal",
         "type" : "VEC3"
      }
   ],
   "asset" : {
      "extras" : {
         "GOOGLE_processor_version" : 346395741
      },
      "generator" : "Obj2GltfConverter",
      "version" : "2.0"
   },
   "bufferViews" : [
      {
         "buffer" : 0,
         "byteLength" : 132,
         "byteOffset" : 0,
         "name" : "buffer-0-bufferview-ushort",
         "target" : 34963
      },
      {
         "buffer" : 0,
         "byteLength" : 1080,
         "byteOffset" : 132,
         "byteStride" : 12,
         "name" : "buffer-0-bufferview-vec3",
         "target" : 34962
      }
   ],
   "buffers" : [
      {
         "byteLength" : 1212,
         "name" : "buffer-0",
         "uri" : "RLab-arrow.bin"
      }
   ],
   "cameras" : [
      {
         "perspective" : {
            "yfov" : 0.7853981633974483,
            "znear" : 0.1000000014901161
         },
         "type" : "perspective"
      }
   ],
   "extensions" : {
      "KHR_lights_punctual" : {
         "lights" : [
            {
               "color" : [ 1, 0.9333333333333333, 0.8666666666666667 ],
               "intensity" : 0.25,
               "name" : "headLight",
               "type" : "directional"
            },
            {
               "color" : [ 1, 0.9333333333333333, 0.8666666666666667 ],
               "intensity" : 0.324999988079071,
               "name" : "keyLight",
               "type" : "directional"
            }
         ]
      }
   },
   "extensionsUsed" : [ "GOOGLE_backgrounds", "GOOGLE_camera_settings", "KHR_lights_punctual" ],
   "extras" : {
      "GOOGLE_initial_camera_motion" : {
         "motionPath" : "FULL_ROTATION"
      },
      "GOOGLE_lighting_rig" : {
         "disableShadows" : false
      }
   },
   "materials" : [
      {
         "alphaCutoff" : 0.5,
         "alphaMode" : "OPAQUE",
         "doubleSided" : true,
         "emissiveFactor" : [ 0, 0, 0 ],
         "name" : "SVGMat.003",
         "pbrMetallicRoughness" : {
            "baseColorFactor" : [ 0.001518000033684075, 0.1620289981365204, 0.7681509852409363, 1 ],
            "metallicFactor" : 0,
            "roughnessFactor" : 0.3621946275234222
         }
      }
   ],
   "meshes" : [
      {
         "name" : "buffer-0-mesh-0",
         "primitives" : [
            {
               "attributes" : {
                  "NORMAL" : 2,
                  "POSITION" : 1
               },
               "indices" : 0,
               "material" : 0,
               "mode" : 4
            }
         ]
      }
   ],
   "nodes" : [
      {
         "mesh" : 0,
         "name" : "node-0"
      },
      {
         "children" : [ 2 ]
      },
      {
         "children" : [ 3 ],
         "extras" : {
            "isTransformNode" : 1
         },
         "translation" : [ -0.09161977902054787, 0.3257367306947708, 1.556542292833328 ]
      },
      {
         "children" : [ 0 ],
         "translation" : [ 0.09161977902054787, -0.3257367306947708, -1.556542292833328 ]
      },
      {
         "camera" : 0,
         "children" : [ 5 ],
         "rotation" : [
            -0.2300425180630831,
            0.00770269695778265,
            0.001820840293816126,
            0.9731483920160363
         ],
         "translation" : [ -0.07534268747131753, 0.8406596434569851, 2.584690820706077 ]
      },
      {
         "extensions" : {
            "KHR_lights_punctual" : {
               "light" : 0
            }
         },
         "extras" : {
            "isHeadLight" : 1
         },
         "name" : "headLightNode",
         "translation" : [ -0.3593291763685386, 0.1796645881842693, 0.1796645881842693 ]
      },
      {
         "extensions" : {
            "KHR_lights_punctual" : {
               "light" : 1
            }
         },
         "extras" : {
            "isKeyLight" : 1
         },
         "name" : "keyLightNode",
         "rotation" : [ -0.7505326882858236, -0.3752663441429118, 0, 0.5439447166468927 ],
         "scale" : [ 0, 0, 0.362922468132224 ],
         "translation" : [ -0.4512778027320368, 1.054669363657196, 1.197806510978494 ]
      }
   ],
   "scene" : 0,
   "scenes" : [
      {
         "extensions" : {
            "GOOGLE_backgrounds" : {
               "color" : [ 1, 0.9215686274509803, 0.2313725490196079 ]
            },
            "GOOGLE_camera_settings" : {
               "mode" : "movableOrbit",
               "pivot" : [ -0.09161977902054752, 0.3257367306947706, 1.556542292833328 ]
            }
         },
         "extras" : {
            "GOOGLE_camera_index" : {
               "cameraIndex" : 0,
               "nodeIndex" : 4
            },
            "GOOGLE_geometry_data" : {
               "stats" : {
                  "centroid" : [ -0.08835533459981283, 0.3288244273927477, 1.560728979110718 ],
                  "radius" : 0.3593291763685386,
                  "stdev" : 0.239183675756235
               },
               "visualCenterPoint" : [ -0.09161977902054787, 0.3257367306947708, 1.556542292833328 ]
            }
         },
         "name" : "scene-0",
         "nodes" : [ 1, 4, 6 ]
      }
   ]
}
